<svg width="0" height="0" class="hidden">
  <symbol fill="none" xmlns="http://www.w3.org/2000/svg" viewBox="0 0 50 57" id="icon-1">
    <path d="M48.868 34.348c-.413-.958-1.097-2.543-1.11-3.068 1.178-3.209.749-6.76-1.213-10.008-3.017-4.996-9.201-8.622-14.704-8.622-2.909 0-5.749.767-8.304 2.23-.733-4.44-4.256-7.816-8.481-7.816-4.756 0-8.624 4.275-8.624 9.53 0 3.344 1.542 6.384 4.124 8.133.744.504.913.94.973 1.654v6.514c0 1.243.914 2.255 2.039 2.255h.342c.554 4.873 2.688 9.298 6.075 12.554.032.11.125.626-.275 2.164-.312 1.198-.79 2.53-1.212 3.704-.283.786-.527 1.464-.674 1.978a1.21 1.21 0 00.147.994.98.98 0 00.813.456h14.379c.472 0 1.121-.234 1.53-1.348.178-.484.294-1.067.416-1.685.12-.602.4-2.01.68-2.18 0 0 .016-.004.056.003a.89.89 0 00.156.013c1.506 0 2.736.076 3.822.142 3.184.195 5.106.313 6.792-2.37.857-1.366.76-3.357.657-5.464-.053-1.087-.108-2.208-.01-3.14.175-.192.616-.526.892-.735.95-.72 1.846-1.401 1.846-2.436 0-.787-.43-1.825-1.132-3.452zm-37.26-11.52c-1.98-1.34-3.161-3.67-3.161-6.233 0-4.028 2.965-7.305 6.609-7.305s6.609 3.277 6.609 7.305c0 2.562-1.182 4.893-3.162 6.233-.941.638-1.5 1.38-1.766 2.385h-3.362c-.266-1.004-.825-1.747-1.767-2.385zm4.96 4.612v1.628h-3.025V27.44h3.025zm-3 5.483c-.011 0-.025-.016-.025-.028v-1.6h3.025v1.6c0 .013-.014.028-.025.028h-2.975zM47.013 38.4c-.867.659-1.615 1.227-1.726 2.087-.151 1.18-.088 2.483-.026 3.743.076 1.564.162 3.337-.301 4.075-1.002 1.595-1.87 1.61-5.025 1.417a61.948 61.948 0 00-3.866-.146c-.588-.076-1.584.046-2.248 1.473-.338.725-.519 1.636-.679 2.44-.08.403-.193.97-.299 1.284H20.234l.137-.38c1.45-4.038 2.37-7 .97-8.336-2.964-2.835-4.855-6.673-5.397-10.907h.6c1.124 0 2.039-1.012 2.039-2.255v-6.513c.06-.715.228-1.15.973-1.655 2.384-1.615 3.88-4.33 4.095-7.37 2.473-1.624 5.293-2.48 8.19-2.48 4.8 0 10.4 3.28 13.028 7.63 1.126 1.865 2.214 4.766 1 7.996-.395 1.052.191 2.51 1.18 4.803.32.742.784 1.816.906 2.318-.208.22-.655.559-.942.776z" fill="#FA8669"></path>
    <path d="M19.997 15.023c-.298-1.22-1.037-2.195-2.139-2.823-.494-.282-1.102-.068-1.357.479-.255.546-.06 1.218.434 1.5.601.343.967.809 1.117 1.423.237.974-.122 2.027-.28 2.3-.299.52-.161 1.208.308 1.538a.933.933 0 00.54.175.986.986 0 00.85-.515c.43-.745.925-2.446.527-4.078zM15.056 0c-.557 0-1.008.499-1.008 1.113v3.174c0 .614.451 1.113 1.008 1.113.556 0 1.007-.499 1.007-1.113V1.113C16.063.5 15.612 0 15.056 0zM3.879 15.526H1.007C.451 15.526 0 16.025 0 16.64c0 .614.451 1.113 1.007 1.113H3.88c.556 0 1.007-.498 1.007-1.113s-.45-1.114-1.007-1.114zM10.34 5.384L8.903 2.637c-.278-.533-.895-.715-1.376-.408-.482.308-.647.988-.369 1.52l1.436 2.748c.186.357.525.557.873.557a.93.93 0 00.503-.15c.481-.307.646-.988.368-1.52zM5.879 9.5L3.393 7.912c-.482-.308-1.098-.125-1.376.407-.278.533-.113 1.214.369 1.521l2.486 1.587a.93.93 0 00.502.15c.348 0 .687-.2.874-.558.278-.532.113-1.213-.369-1.52zm22.216-1.181c-.278-.533-.894-.715-1.376-.408l-2.486 1.587c-.482.308-.647.989-.369 1.521.187.358.525.557.873.557a.93.93 0 00.503-.149l2.486-1.587c.482-.307.647-.988.369-1.521zM6.248 22.26c-.278-.532-.894-.715-1.376-.408L2.386 23.44c-.482.308-.647.989-.37 1.522.187.357.526.557.874.557a.93.93 0 00.503-.15l2.486-1.586c.482-.308.647-.989.37-1.522zm3.515 4.511c-.481-.307-1.097-.125-1.376.408L7.16 29.53c-.278.533-.113 1.214.369 1.521.159.101.332.15.503.15.348 0 .686-.2.873-.558l1.228-2.352c.278-.532.113-1.213-.369-1.52zM22.584 2.23c-.482-.308-1.098-.126-1.376.407l-1.435 2.747c-.279.532-.114 1.213.368 1.52a.93.93 0 00.503.15c.348 0 .687-.2.873-.557l1.436-2.747c.278-.533.113-1.213-.369-1.52z" fill="#FA8669"></path>
  </symbol>
  <symbol fill="none" xmlns="http://www.w3.org/2000/svg" viewBox="0 0 57 57" id="icon-2">
    <path d="M16.725.398c-2.992 0-5.425 2.771-5.425 6.177 0 3.406 2.433 6.178 5.425 6.178 2.991 0 5.424-2.772 5.424-6.178S19.716.398 16.725.398zm0 10.452c-2.07 0-3.754-1.918-3.754-4.275S14.655 2.3 16.725 2.3c2.07 0 3.753 1.918 3.753 4.275s-1.684 4.275-3.753 4.275zM40.284.398c-2.991 0-5.424 2.771-5.424 6.177 0 3.406 2.433 6.178 5.424 6.178 2.992 0 5.425-2.772 5.425-6.178S43.275.398 40.284.398zm0 10.452c-2.07 0-3.753-1.918-3.753-4.275S38.215 2.3 40.284 2.3c2.07 0 3.754 1.918 3.754 4.275s-1.684 4.275-3.754 4.275z" fill="#FA8669"></path>
    <path d="M47.622 19.34l8.914-14.674c.298-.49.458-1.062.464-1.655.028-2.905-3.286-4.139-4.754-1.725L44.978 13.25a2.894 2.894 0 01-2.45 1.276H38.04a2.893 2.893 0 01-2.449-1.276l-3.915-6.446c1.356-2.233 1.752-2.66 1.763-3.794.028-2.908-3.288-4.137-4.754-1.725l-.181.298-.181-.298C27.009-.877 24.028-.162 23.61 2.443c-.125.78.025 1.57.421 2.223l1.3 2.14-3.915 6.445a2.893 2.893 0 01-2.45 1.276H14.48a2.894 2.894 0 01-2.448-1.276L4.761 1.286C4.418.72 3.909.305 3.328.118.992-.634-.921 2.374.47 4.666L9.386 19.34c.127.245 1.363 2.714 1.363 5.503v28.978c0 1.69 1.207 3.064 2.69 3.064h6.569c1.483 0 2.69-1.375 2.69-3.064V31.288c0-.526-.374-.952-.835-.952-.462 0-.835.426-.835.952v22.534c0 .64-.458 1.161-1.02 1.161h-2.45V37.299c0-.525-.373-.951-.835-.951-.461 0-.835.426-.835.951v17.685H13.44c-.563 0-1.02-.52-1.02-1.161V24.844c0-3.453-1.551-6.39-1.617-6.514-.02-.036-8.936-14.711-8.957-14.747-.5-.822.185-1.905 1.027-1.634.445.143-.045-.502 7.791 12.397.666 1.1 2.075 2.084 3.815 2.084h4.489c1.724 0 3.141-.974 3.815-2.084C30.636 1.419 30.12 2.145 30.488 1.982c.863-.384 1.636.742 1.113 1.601l-8.93 14.701a.96.96 0 00-.027.046c-.066.124-1.616 3.06-1.616 6.514v2.004c0 .525.373.951.835.951.461 0 .835-.426.835-.951v-2.004c0-2.774 1.24-5.263 1.363-5.505l4.443-7.313 4.442 7.313c.127.248 1.364 2.734 1.364 5.505v2.62l-3.106 14.024c-.03.133-.28 1.33.342 2.248.68 1.004 1.714.882 2.764.882v9.203c0 1.69 1.207 3.065 2.69 3.065h6.568c1.484 0 2.692-1.375 2.692-3.065v-1.8c0-.526-.374-.952-.836-.952-.461 0-.835.426-.835.952v1.8c0 .64-.458 1.162-1.02 1.162h-2.45V44.618h3.47v2.963c0 .525.373.951.835.951.461 0 .836-.426.836-.951v-2.963c1.05 0 2.069.137 2.75-.794.525-.718.522-1.664.304-2.57l-3.054-13.79v-2.62c0-2.774 1.238-5.263 1.362-5.504zM26.348 5.133c-1.002-1.649-1.18-1.8-1.093-2.348.15-.936 1.221-1.195 1.693-.417l.54.888-1.14 1.877zm13.1 49.85H37c-.562 0-1.02-.52-1.02-1.161v-9.203h3.469v10.364zm5.166-27.168c3.276 14.795 3.293 14.544 3.113 14.79-.11.15.433.11-14.37.11-.244 0-.426-.052-.488-.14-.194-.279-.194.052 3.086-14.76.035-.159.026 0 .026-2.971 0-2.842-1.149-5.738-1.644-6.56l-4.817-7.93 1.14-1.876c.01.017 3.568 5.874 3.58 5.891.312.484 1.51 2.061 3.8 2.061h4.489c2.287 0 3.487-1.577 3.8-2.06a1.15 1.15 0 00.014-.024C54.175 1.454 53.67 2.15 54.05 1.982c.857-.381 1.639.736 1.113 1.601-.022.037-8.937 14.71-8.957 14.747-.066.124-1.617 3.06-1.617 6.514 0 2.973-.01 2.813.026 2.971z" fill="#FA8669"></path>
  </symbol>
  <symbol fill="none" xmlns="http://www.w3.org/2000/svg" viewBox="0 0 55 58" id="icon-3">
    <path d="M19.45 38.76c0 .834-.557 1.51-1.243 1.51h-2.423c-.686 0-1.243-.676-1.243-1.51 0-.833.556-1.509 1.242-1.509h2.424c.686 0 1.242.675 1.242 1.51zM4.936 11.886a24.128 24.128 0 01-.007-1.71c.173-5.601 3.345-8.812 6.802-9.858 2.04-.597 3.814-.174 3.873-.156 3.676.848 7.205 4.098 7.387 10.015.173 5.6-1.545 10.124-4.713 12.41-1.332.962-2.825 1.442-4.318 1.442-1.493 0-2.986-.48-4.318-1.442-2.83-2.043-4.504-5.873-4.704-10.662l-.002-.04zm9.796-3.227c1.562 1.833 3.732 2.52 5.781 1.821a17.574 17.574 0 00-.005-.19c-.111-3.608-1.93-5.815-4.154-6.774-.28 1.934-.83 3.674-1.622 5.143zm-1.63 2.284c-.13.137-.262.27-.398.396-1.485 1.393-3.291 2.139-5.129 2.153.417 2.936 1.574 5.228 3.337 6.5 1.88 1.357 4.216 1.357 6.097 0 1.735-1.253 2.884-3.495 3.317-6.366-2.6.546-5.25-.427-7.225-2.683zm-5.695-.47c1.35.03 2.687-.5 3.779-1.524a7.208 7.208 0 001.04-1.227c.72-1.06 1.386-2.586 1.688-4.756-2.983.166-6.024 2.263-6.455 6.6-.024.234-.05.845-.052.906zm43.218 26.434c-1.028-6.741-6.267-9.769-11.002-9.769-4.737 0-9.975 3.028-11.003 9.77l-2.928 19.21c-.067.442.03.911.266 1.256.236.345.586.56.956.56h16.457c.686 0 1.242-.677 1.242-1.51 0-.834-.556-1.51-1.242-1.51H28.408l2.656-17.435c.768-5.036 4.852-7.296 8.56-7.296 3.707 0 7.79 2.25 8.558 7.287l2.929 19.205c.11.727.633 1.234 1.22 1.234.075 0 .151-.009.227-.026.675-.152 1.12-.944.996-1.764l-2.928-19.212zm4.373-16.995c-.016.521-.251.995-.624 1.255a9.625 9.625 0 01-4.278 1.646c-.682.09-1.296-.508-1.37-1.337-.075-.828.418-1.574 1.1-1.664a7.82 7.82 0 001.556-.368c-1.09-1.27-2.125-2.854-3.043-4.65-.634 3.442-2.15 6.177-4.389 7.794-1.331.96-2.825 1.441-4.318 1.441-1.493 0-2.986-.48-4.318-1.442-2.25-1.624-3.768-4.377-4.397-7.843-.865 1.7-1.892 3.341-3.054 4.7.363.126.74.227 1.129.3.678.127 1.143.898 1.038 1.722-.105.824-.741 1.389-1.418 1.261a9.606 9.606 0 01-3.742-1.56c-.372-.26-.608-.734-.624-1.255-.015-.52.19-1.014.546-1.306 2.012-1.65 4.002-4.845 5.398-8.59.215-.575.89-3.12 1.107-3.73 1.153-3.253 3.575-5.216 6.149-5.98 1.522-.556 3.772-.162 3.83-.143 2.81.647 5.533 2.698 6.743 6.27.207.611.872 3.15 1.079 3.697 1.397 3.694 3.377 6.854 5.354 8.476.355.292.562.786.546 1.306zm-21.918-9.44c1.353.032 2.686-.499 3.778-1.523a7.213 7.213 0 001.042-1.23c.72-1.06 1.385-2.585 1.686-4.753-2.992.167-6.043 2.276-6.459 6.641-.021.222-.046.804-.047.865zm12.918 3.154c-2.6.546-5.25-.426-7.224-2.682a11.4 11.4 0 01-.397.396c-1.485 1.392-3.292 2.138-5.13 2.152.417 2.936 1.575 5.228 3.337 6.5 1.88 1.357 4.217 1.357 6.097 0 1.735-1.253 2.885-3.495 3.317-6.366zm.188-3.146a24.717 24.717 0 00-.005-.19c-.111-3.608-1.93-5.815-4.154-6.774-.28 1.934-.83 3.674-1.623 5.143 1.562 1.833 3.733 2.52 5.782 1.821zm-2.308 26.77l-2.423.001c-.686 0-1.242.676-1.242 1.51 0 .833.556 1.51 1.242 1.51l2.423-.001c.687 0 1.243-.676 1.243-1.51s-.556-1.51-1.243-1.51zM13.951 27.139c-4.736 0-9.975 3.028-11.002 9.77L.02 56.117c-.067.442.03.911.266 1.256.236.345.586.56.955.56h16.362c.686 0 1.242-.677 1.242-1.51 0-.834-.556-1.51-1.242-1.51H2.736l2.656-17.435c.767-5.036 4.852-7.297 8.56-7.296 3.706 0 7.79 2.25 8.558 7.287.125.82.773 1.36 1.448 1.208.675-.152 1.12-.95.995-1.77-1.027-6.742-6.266-9.77-11.002-9.77z" fill="#FA8669"></path>
  </symbol>
  <symbol fill="none" xmlns="http://www.w3.org/2000/svg" viewBox="0 0 56 60" id="icon-4">
    <path d="M55 30.919c-1.828-1.94-2.876-4.634-2.876-7.39v-3.726c0-.72-.161-1.402-.445-2.005-.048-2.737-1.433-5.266-3.654-6.639l-7.139-4.414c-2.44-1.509-5.396-1.357-7.652.224-.177-1.596-.834-3.141-1.974-4.363l-.406-.434C29.546.772 27.808 0 25.958 0s-3.588.771-4.895 2.172c-2.7 2.891-2.7 7.595 0 10.487l.405.434c1.308 1.4 3.047 2.172 4.896 2.172.288 0 .572-.02.854-.058a13.818 13.818 0 01-4.355 2.732c-.74.286-1.345.82-1.757 1.487l-4.781-5.12-.994-1.065c-1.696-1.816-3.951-2.817-6.35-2.817-2.4 0-4.654 1-6.35 2.817C.945 15.046.01 17.444 0 19.996c-.01 2.174.65 4.245 1.878 5.937a8.573 8.573 0 00-1.674 5.103c0 4.27 3.078 7.784 6.983 8.132a10.357 10.357 0 00-1.727 5.765v13.878c0 .647.49 1.171 1.093 1.171.604 0 1.094-.524 1.094-1.171V44.933c0-4.183 3.178-7.586 7.084-7.586 1.383 0 2.753.27 4.038.786a27.455 27.455 0 01-3.301 1.757l-.954.425c-1.133.505-2.014 1.453-2.481 2.668a5.21 5.21 0 00.006 3.766c.716 1.84 2.381 3.03 4.243 3.03.607 0 1.2-.128 1.765-.38l.953-.425c2.243-1 4.408-2.252 6.446-3.71.493 1.384.743 2.844.743 4.355v9.192c0 .647.49 1.171 1.094 1.171.604 0 1.094-.524 1.094-1.171v-9.192c0-2.005-.37-3.935-1.098-5.75a38.829 38.829 0 004.444-4.218 1.231 1.231 0 00-.03-1.657 1.043 1.043 0 00-1.546.032c-3.372 3.753-7.517 6.79-11.988 8.785l-.953.425a2.256 2.256 0 01-.924.2c-.976 0-1.848-.624-2.223-1.588a2.728 2.728 0 01-.003-1.973 2.482 2.482 0 011.3-1.397l.953-.426c8.775-3.914 15.476-12.126 17.922-21.964l.382-1.534a2.546 2.546 0 011.119-1.567 2.251 2.251 0 011.825-.26c.621.177 1.14.603 1.463 1.198a2.72 2.72 0 01.243 1.956l-.381 1.533a39.832 39.832 0 01-3.116 8.371c-.288.569-.09 1.28.44 1.588.531.31 1.195.098 1.483-.47a42.283 42.283 0 002.618-6.439l.409.253a6.917 6.917 0 003.323 1.042c.746 4.405 3.155 8.306 6.757 10.778a3.213 3.213 0 001.823.572c.744 0 1.486-.263 2.098-.782.758-.642 1.223-1.603 1.277-2.636A3.767 3.767 0 0055 30.919zM23.015 11.436l-.405-.434c-1.847-1.978-1.847-5.196 0-7.173.894-.958 2.083-1.486 3.348-1.486 1.265 0 2.455.528 3.35 1.486l.405.434c1.846 1.978 1.846 5.196 0 7.173-.895.958-2.084 1.486-3.35 1.486-1.264 0-2.453-.528-3.348-1.486zm.592 8.706c3.964-1.535 7.272-4.742 9.077-8.798.332-.748 1.17-1.066 1.87-.71.337.172.593.476.718.854s.105.786-.056 1.148c-1.25 2.81-3.12 5.31-5.409 7.229a18.582 18.582 0 01-5.238 3.1c-.39.15-.804.114-1.165-.104a1.479 1.479 0 01-.688-1.011c-.137-.724.246-1.458.89-1.708zm-3.084 2.318c-.073.663-.601 1.18-1.24 1.18-.604 0-1.094.524-1.094 1.171 0 .648.49 1.172 1.094 1.172a3.25 3.25 0 001.82-.56c-.084 1.278-.58 2.53-1.49 3.505-2.004 2.147-5.265 2.147-7.27 0-2.245-2.404-2.245-6.315 0-8.72l3.2-3.426 4.07 4.36c.373.398.676.843.91 1.318zm-18.13 8.576c0-1.618.605-3.122 1.705-4.233a1.23 1.23 0 00-.002-1.705c-2.562-2.838-2.53-7.404.082-10.2 1.283-1.374 2.988-2.131 4.803-2.131 1.814 0 3.52.757 4.803 2.131l.212.227-3.2 3.427c-3.097 3.317-3.097 8.716 0 12.033a7.28 7.28 0 002.34 1.683c-.53 2.62-2.708 4.588-5.31 4.588-2.996 0-5.434-2.61-5.434-5.82zm12.087 3.972a8.46 8.46 0 00.777-2.166 6.906 6.906 0 003.165-.408v3.115a12.851 12.851 0 00-3.942-.541zm6.49 1.61c-.12-.066-.24-.129-.36-.19v-5.31c.19-.166.374-.343.55-.533 1.366-1.463 2.078-3.364 2.138-5.285a3.357 3.357 0 002.014-.132 20.724 20.724 0 006.286-3.84c-1.938 6.176-5.705 11.546-10.628 15.29zm20.84-13.93l-.85-.526.037-.144.381-1.534a5.192 5.192 0 00-.464-3.733c-.615-1.137-1.607-1.95-2.793-2.288a4.325 4.325 0 00-1.234-.166c.105-.216.207-.434.304-.653a4.07 4.07 0 00.143-2.94c-.32-.967-.974-1.744-1.84-2.185a3.581 3.581 0 00-.178-.085 4.82 4.82 0 014.477.34l7.139 4.415a5.346 5.346 0 012.007 2.278 3.898 3.898 0 00-.98-.126c-2.298 0-4.166 2.001-4.166 4.462v3.017c0 .19.003.38.01.57a4.869 4.869 0 01-1.992-.702zm12 10.873c-.019.37-.179.7-.45.93a1.13 1.13 0 01-1.383.074c-3.755-2.578-5.997-6.968-5.997-11.745v-3.017c0-1.169.887-2.119 1.978-2.119s1.979.95 1.979 2.119v3.726c0 3.377 1.284 6.677 3.523 9.054.245.26.37.608.35.978z" fill="#FA8669"></path>
    <path d="M34.1 35.97c-.288 0-.57-.123-.774-.342a1.225 1.225 0 01-.32-.828c0-.308.116-.61.32-.828.203-.218.486-.343.773-.343.288 0 .57.125.774.343.203.218.32.52.32.828 0 .309-.117.61-.32.828a1.062 1.062 0 01-.774.343z" fill="#FA8669"></path>
  </symbol>
  <symbol fill="none" xmlns="http://www.w3.org/2000/svg" viewBox="0 0 47 69" id="icon-5">
    <path d="M46.081 66.287H41.6l.49-19.269c.076-3.015-1.51-5.755-4.04-6.98l-5.228-2.532a.887.887 0 00-.095-.039l-.738-.686c3.729-1.232 6.518-2.74 6.65-2.812.451-.245.635-.845.412-1.339-.019-.041-1.868-4.248-1.868-13.454v-4.277C37.182 6.684 31.044 0 23.5 0S9.818 6.684 9.818 14.9v4.276c0 9.206-1.85 13.413-1.866 13.451-.227.494-.043 1.095.41 1.342.133.073 2.922 1.58 6.65 2.812l-.838.78-5.116 2.477c-2.53 1.225-4.116 3.965-4.04 6.98l.49 19.269H.918c-.507 0-.918.448-.918 1 0 .553.411 1 .919 1H46.08c.508 0 .919-.447.919-1 0-.552-.411-1-.919-1zM11.655 14.899c0-7.112 5.314-12.898 11.845-12.898 6.531 0 11.845 5.786 11.845 12.898v4.277c0 7.308 1.111 11.619 1.702 13.396-1.221.602-3.773 1.775-6.733 2.651l-.327-.303a.87.87 0 00-.66-.236v-2.487c1.721-1.214 3.124-2.963 3.987-5.09.505-1.246.789-2.63.82-4.002.107-4.512-3.447-5.654-7.21-6.864-3.153-1.014-6.726-2.162-9.656-5.266a.866.866 0 00-1.299.02 1.064 1.064 0 00.018 1.414c3.255 3.448 7.226 4.725 10.417 5.75 4.028 1.296 5.961 2.045 5.894 4.895a9.304 9.304 0 01-.665 3.245c-1.422 3.508-4.615 5.776-8.133 5.776-4.29 0-7.967-3.335-8.742-7.928-.173-1.027-1.046-1.773-1.986-1.698a.954.954 0 01-.314-.029c-.458-.117-.803-.653-.803-1.246v-.82c0-.608.365-1.135.849-1.228a1 1 0 011.024.428c.176.25.41.428.678.516.39.129.822.054 1.154-.201a7.956 7.956 0 002.024-2.329c.272-.467.145-1.085-.284-1.38-.428-.296-.996-.157-1.267.309a6.145 6.145 0 01-1.18 1.47c-.655-.66-1.562-.956-2.467-.784a2.587 2.587 0 00-.531.164V14.9zm7.854 21.946v-3.61a9.94 9.94 0 003.99.84 9.936 9.936 0 003.991-.842v3.612l-2.772 4.199-.01.015c-.002.005-.006.009-.009.014l-1.147 1.873c-.006.01-.018.03-.052.03s-.046-.02-.053-.03l-1.146-1.873-.01-.014-.009-.015-2.773-4.199zm.756 4.57l-1.325 1.083a.976.976 0 01-.867.197 1.063 1.063 0 01-.694-.599l-1.572-3.423 1.64-1.526 2.818 4.269zm9.289-4.267l1.64 1.525-1.572 3.423c-.14.303-.393.521-.695.599a.976.976 0 01-.867-.197l-1.325-1.082 2.819-4.268zM9.953 32.572c.442-1.328 1.174-4.075 1.516-8.43a2.541 2.541 0 001.426.303.13.13 0 01.057.063c.55 3.26 2.31 5.992 4.72 7.692v2.484a.87.87 0 00-.66.236l-.326.303c-2.96-.876-5.512-2.05-6.733-2.65zm-.148 9.294l4.429-2.145 1.501 3.27c.384.835 1.082 1.437 1.916 1.65.22.058.443.085.665.085.617 0 1.222-.216 1.727-.628l1.268-1.036.608.994c.353.577.944.921 1.581.921s1.228-.344 1.581-.921l.608-.994 1.268 1.036c.505.412 1.11.628 1.727.628.222 0 .445-.027.665-.084.834-.215 1.532-.816 1.916-1.651l1.52-3.313 4.517 2.188c.355.171.684.384.984.631l-3.339 4.545H12.16l-3.339-4.545c.3-.247.629-.46.984-.631zm-.852 8.489l.764 14.968c.017.34.084.663.192.964H7.346l-.491-19.324A5.78 5.78 0 017.573 44l2.635 3.587a2.94 2.94 0 00-.471.436 3.32 3.32 0 00-.784 2.331zm27.26-.11l-.764 14.967c-.03.603-.489 1.075-1.043 1.075H12.594c-.554 0-1.012-.472-1.043-1.075l-.764-14.968a1.188 1.188 0 01.284-.845c.2-.23.47-.356.76-.356H35.17c.29 0 .56.127.759.356.2.23.3.53.284.845zm3.548 16.042h-2.67a3.37 3.37 0 00.193-.964l.763-14.968a3.32 3.32 0 00-.784-2.33 2.961 2.961 0 00-.403-.384L39.534 44a5.79 5.79 0 01.718 2.962l-.491 19.324z" fill="#FA8669"></path>
    <path d="M23.5 54.526c-1.86 0-3.373 1.648-3.373 3.673 0 2.025 1.513 3.673 3.373 3.673 1.86 0 3.373-1.648 3.373-3.673 0-2.025-1.513-3.673-3.373-3.673zm0 5.345c-.847 0-1.536-.75-1.536-1.672 0-.922.689-1.672 1.536-1.672.847 0 1.536.75 1.536 1.672 0 .922-.69 1.672-1.536 1.672z" fill="#FA8669"></path>
  </symbol>

<symbol fill="none" xmlns="http://www.w3.org/2000/svg" viewBox="0 0 48 48" id="telegram">
    <path d="M47 24c0 12.703-10.297 23-23 23S1 36.703 1 24 11.297 1 24 1s23 10.297 23 23z" fill="url(#paint0_linear)" stroke="#fff" stroke-width="2"></path>
    <path d="M8.938 25.174c2.806-1.546 5.938-2.835 8.864-4.132 5.034-2.123 10.088-4.21 15.193-6.152.994-.331 2.778-.655 2.953.817-.095 2.084-.49 4.155-.76 6.226-.686 4.556-1.48 9.095-2.253 13.635-.267 1.513-2.161 2.296-3.373 1.328-2.913-1.968-5.849-3.917-8.725-5.93-.942-.957-.069-2.332.773-3.016 2.4-2.364 4.944-4.373 7.218-6.86.613-1.481-1.2-.233-1.797.15-3.285 2.263-6.49 4.665-9.952 6.654-1.77.974-3.831.142-5.6-.401-1.585-.657-3.908-1.318-2.54-2.319z" fill="#fff"></path>
    <defs>
      <linearGradient id="paint0_linear" x1="18.003" y1="2.002" x2="6.003" y2="30" gradientUnits="userSpaceOnUse">
        <stop stop-color="#37AEE2"></stop>
        <stop offset="1" stop-color="#1E96C8"></stop>
      </linearGradient>
    </defs>
  </symbol>
  <symbol fill="none" xmlns="http://www.w3.org/2000/svg" viewBox="0 0 48 48" id="whatsapp">
    <path d="M47 24c0 12.703-10.297 23-23 23S1 36.703 1 24 11.297 1 24 1s23 10.297 23 23z" fill="#25D366" stroke="#fff" stroke-width="2"></path>
    <path fill-rule="evenodd" clip-rule="evenodd" d="M24.791 37.352h-.006c-2.388 0-4.735-.6-6.82-1.737L10.4 37.6l2.025-7.395a14.246 14.246 0 01-1.905-7.135c.003-7.869 6.405-14.27 14.27-14.27a14.18 14.18 0 0110.096 4.185 14.185 14.185 0 014.176 10.096c-.003 7.867-6.402 14.268-14.27 14.271zm-6.475-4.32l.433.257a11.843 11.843 0 006.037 1.653h.005c6.538 0 11.859-5.321 11.862-11.861a11.79 11.79 0 00-3.471-8.392 11.78 11.78 0 00-8.386-3.479c-6.543 0-11.864 5.32-11.867 11.86 0 2.242.626 4.425 1.814 6.313l.282.45-1.199 4.376 4.49-1.177zm13.176-6.878c.25.12.417.201.489.32.089.15.089.864-.208 1.697-.297.833-1.722 1.593-2.407 1.695-.614.092-1.392.13-2.246-.141a20.485 20.485 0 01-2.033-.751c-3.343-1.444-5.602-4.684-6.029-5.296-.03-.043-.05-.073-.063-.089l-.002-.003c-.189-.252-1.453-1.94-1.453-3.685 0-1.643.806-2.504 1.178-2.9l.07-.075a1.31 1.31 0 01.95-.446c.238 0 .476.002.684.012.026.002.052.001.08.001.207-.001.467-.003.722.611.099.236.242.587.394.956.307.747.646 1.573.706 1.692.089.178.148.387.03.625l-.05.101c-.09.183-.156.317-.307.494-.06.07-.121.144-.183.22-.123.148-.245.298-.352.404-.179.178-.364.371-.157.728.209.357.924 1.525 1.984 2.47a9.21 9.21 0 002.632 1.664c.098.043.178.077.236.106.356.179.564.149.772-.09.208-.237.892-1.04 1.13-1.397.237-.357.475-.298.802-.179.327.12 2.08.982 2.436 1.16l.195.096z" fill="#FDFDFD"></path>
  </symbol>





<symbol fill="none" xmlns="http://www.w3.org/2000/svg" viewBox="0 0 50 53" id="circle-1">
    <circle cx="25" cy="27" r="25" fill="#FA8669"></circle>
    <path d="M24.156 18.88c-.048.072-.78.24-2.196.504-1.392.264-2.352.444-2.88.54v-2.916c2.928-.696 4.932-1.752 6.012-3.168h2.916V43h-3.852V18.88z" fill="#fff"></path>
  </symbol>
  <symbol fill="none" xmlns="http://www.w3.org/2000/svg" viewBox="0 0 50 53" id="circle-2">
    <circle cx="25" cy="27" r="25" fill="#FA8669"></circle>
    <path d="M17.476 40.264l7.416-11.556c.36-.576.6-.936.72-1.08.84-1.344 1.452-2.46 1.836-3.348.384-.888.576-1.956.576-3.204 0-1.392-.228-2.46-.684-3.204-.456-.744-1.2-1.116-2.232-1.116-2.304 0-3.456 1.788-3.456 5.364v.972H17.8v-1.008c0-2.736.564-4.836 1.692-6.3 1.128-1.464 2.94-2.196 5.436-2.196 2.304 0 4.044.66 5.22 1.98 1.176 1.296 1.764 3.144 1.764 5.544 0 1.176-.144 2.232-.432 3.168-.264.912-.588 1.704-.972 2.376-.384.672-.984 1.632-1.8 2.88L22.012 39.76h9.216V43H17.476v-2.736z" fill="#fff"></path>
  </symbol>
  <symbol fill="none" xmlns="http://www.w3.org/2000/svg" viewBox="0 0 50 53" id="circle-3">
    <circle cx="25" cy="27" r="25" fill="#FA8669"></circle>
    <path d="M25.568 43.324c-2.328 0-4.104-.648-5.328-1.944-1.2-1.32-1.8-3.168-1.8-5.544v-.972h3.816v.648c.048 1.488.3 2.628.756 3.42.48.792 1.332 1.188 2.556 1.188 1.296 0 2.172-.444 2.628-1.332.48-.912.72-2.256.72-4.032 0-1.632-.3-2.904-.9-3.816-.6-.936-1.572-1.452-2.916-1.548-.096-.024-.276-.036-.54-.036v-3.852h.504c1.368-.048 2.352-.408 2.952-1.08.6-.672.9-1.788.9-3.348 0-1.44-.24-2.52-.72-3.24-.48-.744-1.344-1.116-2.592-1.116s-2.112.396-2.592 1.188c-.456.792-.708 1.956-.756 3.492v.612H18.44v-.972c0-2.376.6-4.212 1.8-5.508 1.224-1.296 3.012-1.944 5.364-1.944s4.128.66 5.328 1.98c1.224 1.296 1.836 3.132 1.836 5.508 0 1.704-.372 3.096-1.116 4.176-.744 1.08-1.764 1.812-3.06 2.196 1.32.408 2.34 1.236 3.06 2.484.744 1.248 1.116 2.856 1.116 4.824 0 2.712-.588 4.824-1.764 6.336-1.152 1.488-2.964 2.232-5.436 2.232z" fill="#fff"></path>
  </symbol>
  <symbol fill="none" xmlns="http://www.w3.org/2000/svg" viewBox="0 0 50 53" id="circle-4">
    <circle cx="25" cy="27" r="25" fill="#FA8669"></circle>
    <path d="M25.9 35.188h-8.46v-4.032l7.596-17.316h4.536v17.928h3.276v3.42h-3.276V43H25.9v-7.812zm0-3.42V18.52l-4.752 13.248H25.9z" fill="#fff"></path>
  </symbol>
  
  <symbol fill="none" xmlns="http://www.w3.org/2000/svg" viewBox="0 0 60 60" id="pause-orange-button">
    <circle cx="30" cy="30" r="30" fill="#FA8669"></circle>
    <path d="M24.5 17.166h-3.667A1.834 1.834 0 0019 19v22c0 1.012.82 1.833 1.833 1.833H24.5c1.012 0 1.833-.82 1.833-1.833V19c0-1.013-.82-1.834-1.833-1.834zm14.667 0H35.5A1.833 1.833 0 0033.667 19v22c0 1.012.82 1.833 1.833 1.833h3.667c1.012 0 1.833-.82 1.833-1.833V19c0-1.013-.82-1.834-1.833-1.834z" stroke="#fff" stroke-width="2.75" stroke-linecap="round" stroke-linejoin="round"></path>
  </symbol>
  <symbol fill="none" xmlns="http://www.w3.org/2000/svg" viewBox="0 0 60 60" id="pause-white-button">
    <circle cx="30" cy="30" r="30" fill="#fff"></circle>
    <path d="M24.5 17.166h-3.667A1.834 1.834 0 0019 19v22c0 1.012.82 1.833 1.833 1.833H24.5c1.012 0 1.833-.82 1.833-1.833V19c0-1.013-.82-1.834-1.833-1.834zm14.667 0H35.5A1.833 1.833 0 0033.667 19v22c0 1.012.82 1.833 1.833 1.833h3.667c1.012 0 1.833-.82 1.833-1.833V19c0-1.013-.82-1.834-1.833-1.834z" stroke="#FA8669" stroke-width="2.75" stroke-linecap="round" stroke-linejoin="round"></path>
  </symbol>
  <symbol fill="none" xmlns="http://www.w3.org/2000/svg" viewBox="0 0 60 60" id="play-orange-button">
    <circle cx="30" cy="30" r="30" fill="#FA8669"></circle>
    <path d="M20.833 15.334v29.333L44.667 30 20.833 15.334z" stroke="#fff" stroke-width="2.75" stroke-linecap="round" stroke-linejoin="round"></path>
  </symbol>
  <symbol fill="none" xmlns="http://www.w3.org/2000/svg" viewBox="0 0 60 60" id="play-white-button">
    <circle cx="30" cy="30" r="30" fill="#fff"></circle>
    <path d="M20.833 15.334v29.333L44.667 30 20.833 15.334z" stroke="#FA8669" stroke-width="2.75" stroke-linecap="round" stroke-linejoin="round"></path>
  </symbol>
</svg>