<?xml version="1.0" standalone="no"?>
<!DOCTYPE svg PUBLIC "-//W3C//DTD SVG 20010904//EN"
 "http://www.w3.org/TR/2001/REC-SVG-20010904/DTD/svg10.dtd">
<svg version="1.0" xmlns="http://www.w3.org/2000/svg"
 width="1250.000000pt" height="1250.000000pt" viewBox="0 0 1250.000000 1250.000000"
 preserveAspectRatio="xMidYMid meet">
<metadata>
Created by potrace 1.11, written by Peter Selinger 2001-2013
</metadata>
<g transform="translate(0.000000,1250.000000) scale(0.100000,-0.100000)"
fill="#000000" stroke="none">
<path d="M5958 12495 c-1 -1 -55 -6 -118 -9 -63 -4 -133 -9 -155 -11 -88 -8
-167 -17 -183 -20 -9 -1 -44 -6 -77 -9 -33 -4 -71 -9 -85 -11 -14 -2 -43 -7
-65 -10 -22 -3 -47 -7 -55 -10 -8 -2 -32 -6 -53 -9 -59 -9 -283 -55 -377 -78
-47 -11 -92 -22 -100 -23 -45 -11 -238 -67 -325 -95 -55 -17 -111 -35 -125
-40 -36 -11 -211 -76 -310 -116 -326 -128 -692 -315 -995 -506 -60 -38 -119
-74 -129 -81 -11 -7 -25 -16 -30 -20 -6 -5 -56 -40 -111 -78 -55 -38 -107 -75
-115 -82 -8 -6 -40 -30 -70 -52 -55 -40 -83 -61 -104 -80 -6 -6 -60 -51 -121
-100 -60 -50 -117 -97 -126 -105 -9 -8 -62 -58 -119 -110 -174 -160 -369 -362
-516 -535 -28 -33 -59 -71 -70 -83 -10 -13 -27 -33 -37 -45 -10 -12 -44 -56
-75 -97 -32 -41 -59 -77 -62 -80 -27 -27 -228 -319 -312 -455 -202 -327 -406
-737 -526 -1060 -16 -44 -33 -89 -37 -100 -5 -11 -9 -24 -11 -30 -2 -5 -24
-71 -49 -145 -88 -261 -184 -641 -220 -870 -3 -19 -7 -46 -10 -60 -6 -31 -12
-72 -20 -130 -3 -25 -10 -72 -15 -105 -5 -33 -12 -94 -15 -135 -3 -41 -8 -84
-10 -95 -26 -134 -26 -1003 0 -1130 2 -11 7 -49 10 -85 3 -36 7 -79 9 -95 3
-17 7 -50 10 -75 3 -25 10 -76 16 -115 6 -38 13 -86 16 -105 27 -180 113 -550
175 -755 43 -143 127 -388 154 -450 12 -28 64 -154 89 -220 57 -142 244 -511
356 -700 147 -247 394 -608 496 -723 8 -9 42 -51 76 -92 33 -41 63 -77 67 -80
3 -3 31 -34 61 -70 30 -35 89 -100 130 -144 415 -437 807 -755 1337 -1083 57
-35 105 -63 107 -63 2 0 48 -25 102 -56 216 -122 564 -282 819 -377 375 -139
830 -261 1165 -312 25 -4 52 -8 60 -10 17 -3 98 -14 148 -21 17 -2 47 -6 65
-8 217 -30 430 -41 762 -41 255 0 455 7 550 19 17 2 66 7 110 11 44 3 89 8
100 10 11 2 43 7 70 10 28 3 93 13 145 21 52 9 109 18 125 21 98 15 485 104
580 132 17 5 71 22 120 36 98 29 117 36 275 91 121 42 298 111 385 149 33 14
83 36 110 48 227 98 680 350 885 491 233 160 438 315 590 445 308 265 629 598
842 871 94 121 155 200 166 216 7 11 29 42 48 69 280 390 582 957 734 1377 17
46 34 92 40 103 11 24 108 322 115 350 2 11 18 69 35 129 30 106 57 215 66
266 3 14 7 33 10 42 3 10 7 30 10 45 3 16 16 82 29 148 13 66 27 144 30 174 4
30 8 63 11 74 2 10 6 45 9 76 4 31 8 63 10 71 2 8 7 51 10 95 4 44 8 91 10
104 31 194 26 905 -10 1214 -3 26 -8 71 -11 100 -3 28 -7 63 -10 77 -2 14 -6
45 -10 70 -8 68 -32 201 -60 340 -15 69 -28 133 -30 143 -36 190 -200 720
-278 901 -7 17 -30 72 -51 121 -116 280 -292 623 -438 855 -105 167 -278 423
-297 440 -3 3 -17 21 -30 40 -14 19 -30 42 -37 50 -7 8 -35 44 -63 80 -235
298 -623 699 -869 896 -13 10 -28 24 -35 29 -132 119 -597 452 -763 546 -23
13 -88 51 -145 84 -248 143 -614 314 -898 420 -150 56 -472 160 -555 180 -11
3 -56 14 -100 25 -105 27 -197 47 -340 76 -11 2 -31 6 -45 9 -14 2 -41 7 -60
10 -19 3 -42 8 -50 10 -8 2 -39 7 -69 10 -30 4 -61 8 -70 10 -47 8 -181 26
-231 30 -102 8 -199 17 -230 21 -39 5 -726 14 -732 9z"/>
</g>
</svg>
